<svg fill="none" viewBox="0 0 20 20" id="basket" xmlns="http://www.w3.org/2000/svg"><path d="M18.536 1.818h-14.9c-.045 0-.085.017-.128.03L3.142.644A.909.909 0 002.272 0H.456A.455.455 0 000 .455v.909c0 .25.204.454.455.454h1.144l2.84 9.333-1.06 1.238c-.42.489-.608 1.162-.415 1.777.246.786.94 1.288 1.74 1.288h13.023a.455.455 0 00.455-.454v-.91a.455.455 0 00-.455-.454H4.704l1.44-1.68c.037-.043.064-.09.091-.138h8.809c.704 0 1.345-.407 1.645-1.044l3.172-6.74c.091-.194.139-.41.139-.623v-.129c0-.808-.655-1.464-1.464-1.464zM5.454 20a1.818 1.818 0 100-3.636 1.818 1.818 0 000 3.636zM16.364 20a1.818 1.818 0 100-3.636 1.818 1.818 0 000 3.636z" fill="#FBF6FF"/></svg>
