<svg xmlns="http://www.w3.org/2000/svg" fill="none" viewBox="0 0 20 20" id="trash-can"><path d="M18.572 2.857h-5v-.714C13.572.959 12.611 0 11.428 0H8.572C7.388 0 6.429.96 6.429 2.143v.714h-5a.714.714 0 100 1.429h.776L3.572 19.35c.033.369.343.65.714.649h11.428c.37.002.681-.28.715-.65l1.366-15.064h.776a.714.714 0 100-1.429zM7.857 2.143c0-.395.32-.714.715-.714h2.857c.394 0 .714.32.714.714v.714H7.857v-.714zm7.205 16.428H4.938L3.643 4.286H16.36L15.062 18.57z" fill="#fff" fill-opacity=".6"/><path d="M10 5.714a.714.714 0 00-.714.715v10a.714.714 0 101.428 0v-10A.714.714 0 0010 5.714zM7.858 16.38v-.002l-.715-10a.716.716 0 00-1.429.101l.715 10a.714.714 0 00.714.664h.052a.714.714 0 00.663-.762zM13.622 5.714a.716.716 0 00-.765.664l-.714 10a.714.714 0 00.663.765h.051c.376 0 .688-.29.714-.664l.715-10a.716.716 0 00-.664-.765z" fill="#fff" fill-opacity=".6"/></svg>
